<svg width="308" height="50" viewBox="0 0 308 50" fill="none" xmlns="http://www.w3.org/2000/svg">
<path d="M0.896 49.024V48.064C2.176 47.936 3.264 47.552 4.16 46.912C5.056 46.304 5.744 45.248 6.224 43.744C6.704 42.24 6.944 40.128 6.944 37.408V11.104C6.944 9.92 6.848 9.056 6.656 8.512C6.496 7.936 6.16 7.552 5.648 7.36C5.136 7.136 4.368 7.008 3.344 6.976V6.016C4.144 6.048 5.184 6.08 6.464 6.112C7.776 6.144 9.152 6.16 10.592 6.16C12.032 6.16 13.424 6.144 14.768 6.112C16.144 6.08 17.28 6.048 18.176 6.016V6.976C17.184 7.008 16.416 7.136 15.872 7.36C15.36 7.552 15.008 7.936 14.816 8.512C14.656 9.056 14.576 9.92 14.576 11.104V28.672C14.576 29.984 14.576 31.408 14.576 32.944C14.576 34.448 14.512 35.92 14.384 37.36C14.288 38.8 14.08 40.08 13.76 41.2C13.12 43.408 11.728 45.264 9.584 46.768C7.472 48.272 4.576 49.024 0.896 49.024ZM32.1298 14.512C34.4658 14.512 36.5138 14.944 38.2738 15.808C40.0338 16.672 41.4098 18.064 42.4018 19.984C43.3938 21.904 43.8898 24.448 43.8898 27.616C43.8898 30.784 43.3938 33.328 42.4018 35.248C41.4098 37.136 40.0338 38.512 38.2738 39.376C36.5138 40.24 34.4658 40.672 32.1298 40.672C29.8578 40.672 27.8258 40.24 26.0338 39.376C24.2738 38.512 22.8818 37.136 21.8578 35.248C20.8658 33.328 20.3698 30.784 20.3698 27.616C20.3698 24.448 20.8658 21.904 21.8578 19.984C22.8818 18.064 24.2738 16.672 26.0338 15.808C27.8258 14.944 29.8578 14.512 32.1298 14.512ZM32.1298 15.472C30.8498 15.472 29.7778 16.432 28.9138 18.352C28.0498 20.24 27.6178 23.328 27.6178 27.616C27.6178 31.904 28.0498 34.992 28.9138 36.88C29.7778 38.768 30.8498 39.712 32.1298 39.712C33.4418 39.712 34.5138 38.768 35.3458 36.88C36.2098 34.992 36.6418 31.904 36.6418 27.616C36.6418 23.328 36.2098 20.24 35.3458 18.352C34.5138 16.432 33.4418 15.472 32.1298 15.472ZM69.749 15.184V16.144C69.141 16.304 68.565 16.688 68.021 17.296C67.477 17.872 66.949 18.864 66.437 20.272L59.669 39.28L57.893 42.64L47.429 18.88C46.885 17.632 46.341 16.88 45.797 16.624C45.285 16.336 44.837 16.192 44.453 16.192V15.184C45.509 15.28 46.597 15.36 47.717 15.424C48.869 15.456 49.973 15.472 51.029 15.472C52.341 15.472 53.541 15.44 54.629 15.376C55.717 15.312 56.741 15.248 57.701 15.184V16.192C57.061 16.192 56.453 16.24 55.877 16.336C55.333 16.4 54.949 16.624 54.725 17.008C54.533 17.36 54.629 17.984 55.013 18.88L61.061 33.472L60.629 33.76L64.181 23.824C64.789 22.096 65.045 20.688 64.949 19.6C64.853 18.48 64.501 17.648 63.893 17.104C63.285 16.528 62.453 16.208 61.397 16.144V15.184C61.909 15.216 62.437 15.248 62.981 15.28C63.525 15.28 64.069 15.296 64.613 15.328C65.157 15.328 65.637 15.328 66.053 15.328C66.693 15.328 67.365 15.312 68.069 15.28C68.773 15.248 69.333 15.216 69.749 15.184ZM59.669 39.28L57.845 44.416C57.525 45.216 57.189 45.888 56.837 46.432C56.517 47.008 56.149 47.472 55.733 47.824C55.285 48.208 54.709 48.496 54.005 48.688C53.301 48.912 52.485 49.024 51.557 49.024C50.789 49.024 49.989 48.896 49.157 48.64C48.357 48.384 47.685 47.968 47.141 47.392C46.597 46.816 46.325 46.08 46.325 45.184C46.325 44.192 46.677 43.392 47.381 42.784C48.085 42.208 49.013 41.92 50.165 41.92C51.221 41.92 52.085 42.176 52.757 42.688C53.429 43.2 53.765 43.952 53.765 44.944C53.765 45.584 53.557 46.192 53.141 46.768C52.757 47.344 52.165 47.776 51.365 48.064C51.525 48.096 51.717 48.112 51.941 48.112C52.165 48.112 52.341 48.112 52.469 48.112C53.429 48.112 54.277 47.808 55.013 47.2C55.749 46.592 56.357 45.632 56.837 44.32L58.517 39.376L59.669 39.28ZM82.9445 14.512C84.1925 14.512 85.3285 14.656 86.3525 14.944C87.4085 15.2 88.2725 15.536 88.9445 15.952C89.7765 16.464 90.4165 17.104 90.8645 17.872C91.3445 18.608 91.5845 19.472 91.5845 20.464C91.5845 21.584 91.2325 22.512 90.5285 23.248C89.8245 23.952 88.9125 24.304 87.7925 24.304C86.6725 24.304 85.7765 23.984 85.1045 23.344C84.4325 22.704 84.0965 21.84 84.0965 20.752C84.0965 19.728 84.4165 18.88 85.0565 18.208C85.6965 17.504 86.4325 17.04 87.2645 16.816C87.0085 16.496 86.6245 16.224 86.1125 16C85.6005 15.776 85.0245 15.664 84.3845 15.664C83.3925 15.664 82.5125 15.952 81.7445 16.528C81.0085 17.104 80.3845 17.904 79.8725 18.928C79.3605 19.952 78.9605 21.152 78.6725 22.528C78.4165 23.904 78.2885 25.408 78.2885 27.04C78.2885 29.504 78.5925 31.44 79.2005 32.848C79.8405 34.256 80.6405 35.248 81.6005 35.824C82.5925 36.4 83.6165 36.688 84.6725 36.688C85.2805 36.688 85.9365 36.592 86.6405 36.4C87.3765 36.208 88.1125 35.824 88.8485 35.248C89.6165 34.672 90.3205 33.856 90.9605 32.8L91.7765 33.088C91.4245 34.272 90.8485 35.456 90.0485 36.64C89.2485 37.824 88.2085 38.8 86.9285 39.568C85.6485 40.304 84.0805 40.672 82.2245 40.672C80.1445 40.672 78.2565 40.224 76.5605 39.328C74.8965 38.4 73.5525 36.992 72.5285 35.104C71.5365 33.184 71.0405 30.72 71.0405 27.712C71.0405 24.832 71.5525 22.416 72.5765 20.464C73.6325 18.48 75.0565 16.992 76.8485 16C78.6405 15.008 80.6725 14.512 82.9445 14.512ZM106.661 14.512C109.477 14.512 111.685 15.344 113.285 17.008C114.885 18.672 115.685 21.392 115.685 25.168H99.893L99.797 24.256H109.637C109.669 22.688 109.573 21.248 109.349 19.936C109.125 18.592 108.773 17.52 108.293 16.72C107.813 15.92 107.173 15.52 106.373 15.52C105.253 15.52 104.293 16.224 103.493 17.632C102.725 19.04 102.261 21.376 102.101 24.64L102.245 24.928C102.213 25.312 102.181 25.712 102.149 26.128C102.149 26.544 102.149 26.976 102.149 27.424C102.149 29.632 102.453 31.424 103.061 32.8C103.701 34.176 104.501 35.184 105.461 35.824C106.421 36.432 107.397 36.736 108.389 36.736C109.061 36.736 109.749 36.64 110.453 36.448C111.189 36.224 111.925 35.84 112.661 35.296C113.397 34.72 114.085 33.92 114.725 32.896L115.589 33.184C115.205 34.4 114.597 35.584 113.765 36.736C112.933 37.888 111.877 38.832 110.597 39.568C109.317 40.304 107.781 40.672 105.989 40.672C103.813 40.672 101.893 40.208 100.229 39.28C98.565 38.352 97.253 36.944 96.293 35.056C95.365 33.168 94.901 30.768 94.901 27.856C94.901 24.88 95.397 22.4 96.389 20.416C97.413 18.432 98.805 16.96 100.565 16C102.357 15.008 104.389 14.512 106.661 14.512ZM130.148 6.016C130.98 6.048 132.068 6.08 133.412 6.112C134.756 6.144 136.1 6.16 137.444 6.16C138.98 6.16 140.468 6.144 141.908 6.112C143.348 6.08 144.372 6.064 144.98 6.064C148.948 6.064 151.908 6.768 153.86 8.176C155.844 9.584 156.836 11.392 156.836 13.6C156.836 14.72 156.5 15.856 155.828 17.008C155.156 18.16 154.116 19.184 152.708 20.08C151.3 20.976 149.476 21.632 147.236 22.048V22.144C150.244 22.368 152.628 22.912 154.388 23.776C156.148 24.64 157.412 25.68 158.18 26.896C158.948 28.112 159.332 29.376 159.332 30.688C159.332 32.704 158.804 34.4 157.748 35.776C156.692 37.152 155.172 38.208 153.188 38.944C151.204 39.648 148.836 40 146.084 40C145.316 40 144.212 39.984 142.772 39.952C141.332 39.888 139.588 39.856 137.54 39.856C136.132 39.856 134.756 39.872 133.412 39.904C132.068 39.904 130.98 39.936 130.148 40V39.04C131.172 38.976 131.94 38.848 132.452 38.656C132.964 38.464 133.3 38.08 133.46 37.504C133.652 36.928 133.748 36.064 133.748 34.912V11.104C133.748 9.92 133.652 9.056 133.46 8.512C133.3 7.936 132.948 7.552 132.404 7.36C131.892 7.136 131.14 7.008 130.148 6.976V6.016ZM144.356 6.976C143.108 6.976 142.292 7.248 141.908 7.792C141.556 8.336 141.38 9.44 141.38 11.104V34.912C141.38 36.032 141.46 36.88 141.62 37.456C141.812 38.032 142.132 38.416 142.58 38.608C143.06 38.8 143.764 38.896 144.692 38.896C146.996 38.896 148.676 38.176 149.732 36.736C150.82 35.264 151.364 33.184 151.364 30.496C151.364 28.032 150.74 26.128 149.492 24.784C148.276 23.44 146.244 22.768 143.396 22.768H139.316C139.316 22.768 139.316 22.64 139.316 22.384C139.316 22.096 139.316 21.952 139.316 21.952H143.444C144.948 21.952 146.1 21.6 146.9 20.896C147.7 20.16 148.26 19.2 148.58 18.016C148.9 16.8 149.06 15.504 149.06 14.128C149.06 11.76 148.692 9.984 147.956 8.8C147.22 7.584 146.02 6.976 144.356 6.976ZM168.542 40.336C167.102 40.336 165.902 40.064 164.942 39.52C163.982 38.976 163.278 38.256 162.83 37.36C162.382 36.432 162.158 35.424 162.158 34.336C162.158 32.96 162.462 31.84 163.07 30.976C163.71 30.112 164.526 29.408 165.518 28.864C166.51 28.32 167.55 27.872 168.638 27.52C169.758 27.168 170.814 26.832 171.806 26.512C172.83 26.16 173.646 25.76 174.254 25.312C174.894 24.832 175.214 24.224 175.214 23.488V19.744C175.214 18.912 175.07 18.176 174.782 17.536C174.526 16.864 174.11 16.352 173.534 16C172.99 15.648 172.27 15.472 171.374 15.472C170.734 15.472 170.094 15.568 169.454 15.76C168.814 15.92 168.286 16.208 167.87 16.624C168.766 16.944 169.454 17.44 169.934 18.112C170.446 18.752 170.702 19.488 170.702 20.32C170.702 21.408 170.318 22.272 169.55 22.912C168.814 23.552 167.934 23.872 166.91 23.872C165.758 23.872 164.878 23.52 164.27 22.816C163.694 22.08 163.406 21.2 163.406 20.176C163.406 19.248 163.63 18.48 164.078 17.872C164.558 17.264 165.214 16.688 166.046 16.144C166.942 15.632 168.014 15.232 169.262 14.944C170.542 14.656 171.918 14.512 173.39 14.512C174.862 14.512 176.19 14.672 177.374 14.992C178.558 15.28 179.55 15.824 180.35 16.624C181.086 17.36 181.566 18.272 181.79 19.36C182.014 20.416 182.126 21.76 182.126 23.392V36.448C182.126 37.248 182.206 37.808 182.366 38.128C182.526 38.416 182.798 38.56 183.182 38.56C183.47 38.56 183.742 38.48 183.998 38.32C184.286 38.16 184.59 37.968 184.91 37.744L185.39 38.56C184.718 39.136 183.934 39.584 183.038 39.904C182.174 40.192 181.198 40.336 180.11 40.336C178.926 40.336 177.982 40.176 177.278 39.856C176.574 39.504 176.062 39.04 175.742 38.464C175.454 37.888 175.31 37.216 175.31 36.448C174.542 37.664 173.614 38.624 172.526 39.328C171.438 40 170.11 40.336 168.542 40.336ZM171.95 37.264C172.59 37.264 173.166 37.12 173.678 36.832C174.222 36.512 174.734 36 175.214 35.296V25.456C174.926 25.936 174.526 26.368 174.014 26.752C173.502 27.136 172.958 27.536 172.382 27.952C171.806 28.336 171.246 28.768 170.702 29.248C170.19 29.728 169.774 30.32 169.454 31.024C169.134 31.728 168.974 32.576 168.974 33.568C168.974 34.816 169.246 35.744 169.79 36.352C170.334 36.96 171.054 37.264 171.95 37.264ZM178.478 0.783998C179.022 1.2 179.31 1.776 179.342 2.512C179.374 3.248 179.134 3.936 178.622 4.576C178.11 5.216 177.486 5.792 176.75 6.304C176.014 6.816 175.134 7.44 174.11 8.176C173.118 8.912 171.918 9.936 170.51 11.248L169.982 10.816C170.942 9.088 171.646 7.648 172.094 6.496C172.542 5.312 172.926 4.304 173.246 3.472C173.566 2.64 173.998 1.92 174.542 1.312C175.022 0.671998 175.646 0.303998 176.414 0.207997C177.214 0.0799971 177.902 0.271997 178.478 0.783998ZM203.273 14.512C204.297 14.512 205.129 14.736 205.769 15.184C206.409 15.6 206.873 16.144 207.161 16.816C207.481 17.488 207.641 18.192 207.641 18.928C207.641 20.112 207.289 21.088 206.585 21.856C205.913 22.592 205.017 22.96 203.897 22.96C202.777 22.96 201.897 22.688 201.257 22.144C200.649 21.568 200.345 20.816 200.345 19.888C200.345 18.992 200.537 18.256 200.921 17.68C201.337 17.072 201.849 16.56 202.457 16.144C202.009 16.016 201.561 16.032 201.113 16.192C200.505 16.288 199.929 16.544 199.385 16.96C198.841 17.344 198.377 17.84 197.993 18.448C197.609 19.024 197.305 19.664 197.081 20.368C196.857 21.04 196.745 21.696 196.745 22.336V35.056C196.745 36.592 197.113 37.632 197.849 38.176C198.617 38.72 199.753 38.992 201.257 38.992V40C200.521 39.968 199.449 39.936 198.041 39.904C196.633 39.84 195.161 39.808 193.625 39.808C192.345 39.808 191.049 39.84 189.737 39.904C188.425 39.936 187.433 39.968 186.761 40V38.992C187.881 38.992 188.665 38.752 189.113 38.272C189.593 37.792 189.833 36.88 189.833 35.536V20.416C189.833 18.976 189.609 17.92 189.161 17.248C188.745 16.544 187.945 16.192 186.761 16.192V15.184C187.785 15.28 188.777 15.328 189.737 15.328C191.081 15.328 192.329 15.28 193.481 15.184C194.665 15.056 195.753 14.88 196.745 14.656V19.12C197.129 18.256 197.641 17.472 198.281 16.768C198.921 16.064 199.657 15.52 200.489 15.136C201.321 14.72 202.249 14.512 203.273 14.512ZM224.694 14.512C227.19 14.512 229.254 15.536 230.886 17.584C232.55 19.6 233.382 22.72 233.382 26.944C233.382 30.272 232.87 32.944 231.846 34.96C230.854 36.976 229.526 38.432 227.862 39.328C226.198 40.224 224.374 40.672 222.39 40.672C221.078 40.672 219.862 40.448 218.742 40C217.622 39.552 216.662 38.816 215.862 37.792L216.534 37.552C217.11 38.256 217.782 38.784 218.55 39.136C219.35 39.488 220.134 39.664 220.902 39.664C222.662 39.664 223.974 38.672 224.838 36.688C225.702 34.704 226.134 31.68 226.134 27.616C226.134 24.864 225.958 22.688 225.606 21.088C225.286 19.456 224.806 18.304 224.166 17.632C223.526 16.928 222.758 16.576 221.862 16.576C220.742 16.576 219.718 17.04 218.79 17.968C217.862 18.864 217.334 20.128 217.206 21.76L216.966 20.08C217.542 18.256 218.518 16.88 219.894 15.952C221.27 14.992 222.87 14.512 224.694 14.512ZM217.35 2.464V39.04C216.55 38.912 215.734 38.912 214.902 39.04C214.07 39.168 213.302 39.392 212.598 39.712C211.894 40 211.302 40.352 210.822 40.768L210.102 40.336C210.23 39.888 210.31 39.44 210.342 38.992C210.406 38.544 210.438 38.096 210.438 37.648V8.224C210.438 6.784 210.214 5.728 209.766 5.056C209.35 4.352 208.55 4 207.366 4V2.992C208.39 3.088 209.382 3.136 210.342 3.136C211.654 3.136 212.902 3.088 214.086 2.992C215.27 2.864 216.358 2.688 217.35 2.464ZM242.979 40.336C241.539 40.336 240.339 40.064 239.379 39.52C238.419 38.976 237.715 38.256 237.267 37.36C236.819 36.432 236.595 35.424 236.595 34.336C236.595 32.96 236.899 31.84 237.507 30.976C238.147 30.112 238.963 29.408 239.955 28.864C240.947 28.32 241.987 27.872 243.075 27.52C244.195 27.168 245.251 26.832 246.243 26.512C247.267 26.16 248.083 25.76 248.691 25.312C249.331 24.832 249.651 24.224 249.651 23.488V19.744C249.651 18.912 249.507 18.176 249.219 17.536C248.963 16.864 248.547 16.352 247.971 16C247.427 15.648 246.707 15.472 245.811 15.472C245.171 15.472 244.531 15.568 243.891 15.76C243.251 15.92 242.723 16.208 242.307 16.624C243.203 16.944 243.891 17.44 244.371 18.112C244.883 18.752 245.139 19.488 245.139 20.32C245.139 21.408 244.755 22.272 243.987 22.912C243.251 23.552 242.371 23.872 241.347 23.872C240.195 23.872 239.315 23.52 238.707 22.816C238.131 22.08 237.843 21.2 237.843 20.176C237.843 19.248 238.067 18.48 238.515 17.872C238.995 17.264 239.651 16.688 240.483 16.144C241.379 15.632 242.451 15.232 243.699 14.944C244.979 14.656 246.355 14.512 247.827 14.512C249.299 14.512 250.627 14.672 251.811 14.992C252.995 15.28 253.987 15.824 254.787 16.624C255.523 17.36 256.003 18.272 256.227 19.36C256.451 20.416 256.563 21.76 256.563 23.392V36.448C256.563 37.248 256.643 37.808 256.803 38.128C256.963 38.416 257.235 38.56 257.619 38.56C257.907 38.56 258.179 38.48 258.435 38.32C258.723 38.16 259.027 37.968 259.347 37.744L259.827 38.56C259.155 39.136 258.371 39.584 257.475 39.904C256.611 40.192 255.635 40.336 254.547 40.336C253.363 40.336 252.419 40.176 251.715 39.856C251.011 39.504 250.499 39.04 250.179 38.464C249.891 37.888 249.747 37.216 249.747 36.448C248.979 37.664 248.051 38.624 246.963 39.328C245.875 40 244.547 40.336 242.979 40.336ZM246.387 37.264C247.027 37.264 247.603 37.12 248.115 36.832C248.659 36.512 249.171 36 249.651 35.296V25.456C249.363 25.936 248.963 26.368 248.451 26.752C247.939 27.136 247.395 27.536 246.819 27.952C246.243 28.336 245.683 28.768 245.139 29.248C244.627 29.728 244.211 30.32 243.891 31.024C243.571 31.728 243.411 32.576 243.411 33.568C243.411 34.816 243.683 35.744 244.227 36.352C244.771 36.96 245.491 37.264 246.387 37.264ZM277.711 14.512C278.735 14.512 279.567 14.736 280.207 15.184C280.847 15.6 281.311 16.144 281.599 16.816C281.919 17.488 282.079 18.192 282.079 18.928C282.079 20.112 281.727 21.088 281.023 21.856C280.351 22.592 279.455 22.96 278.335 22.96C277.215 22.96 276.335 22.688 275.695 22.144C275.087 21.568 274.783 20.816 274.783 19.888C274.783 18.992 274.975 18.256 275.359 17.68C275.775 17.072 276.287 16.56 276.895 16.144C276.447 16.016 275.999 16.032 275.551 16.192C274.943 16.288 274.367 16.544 273.823 16.96C273.279 17.344 272.815 17.84 272.431 18.448C272.047 19.024 271.743 19.664 271.519 20.368C271.295 21.04 271.183 21.696 271.183 22.336V35.056C271.183 36.592 271.551 37.632 272.287 38.176C273.055 38.72 274.191 38.992 275.695 38.992V40C274.959 39.968 273.887 39.936 272.479 39.904C271.071 39.84 269.599 39.808 268.063 39.808C266.783 39.808 265.487 39.84 264.175 39.904C262.863 39.936 261.871 39.968 261.199 40V38.992C262.319 38.992 263.103 38.752 263.551 38.272C264.031 37.792 264.271 36.88 264.271 35.536V20.416C264.271 18.976 264.047 17.92 263.599 17.248C263.183 16.544 262.383 16.192 261.199 16.192V15.184C262.223 15.28 263.215 15.328 264.175 15.328C265.519 15.328 266.767 15.28 267.919 15.184C269.103 15.056 270.191 14.88 271.183 14.656V19.12C271.567 18.256 272.079 17.472 272.719 16.768C273.359 16.064 274.095 15.52 274.927 15.136C275.759 14.72 276.687 14.512 277.711 14.512ZM290.229 40.336C288.789 40.336 287.589 40.064 286.629 39.52C285.669 38.976 284.965 38.256 284.517 37.36C284.069 36.432 283.845 35.424 283.845 34.336C283.845 32.96 284.149 31.84 284.757 30.976C285.397 30.112 286.213 29.408 287.205 28.864C288.197 28.32 289.237 27.872 290.325 27.52C291.445 27.168 292.501 26.832 293.493 26.512C294.517 26.16 295.333 25.76 295.941 25.312C296.581 24.832 296.901 24.224 296.901 23.488V19.744C296.901 18.912 296.757 18.176 296.469 17.536C296.213 16.864 295.797 16.352 295.221 16C294.677 15.648 293.957 15.472 293.061 15.472C292.421 15.472 291.781 15.568 291.141 15.76C290.501 15.92 289.973 16.208 289.557 16.624C290.453 16.944 291.141 17.44 291.621 18.112C292.133 18.752 292.389 19.488 292.389 20.32C292.389 21.408 292.005 22.272 291.237 22.912C290.501 23.552 289.621 23.872 288.597 23.872C287.445 23.872 286.565 23.52 285.957 22.816C285.381 22.08 285.093 21.2 285.093 20.176C285.093 19.248 285.317 18.48 285.765 17.872C286.245 17.264 286.901 16.688 287.733 16.144C288.629 15.632 289.701 15.232 290.949 14.944C292.229 14.656 293.605 14.512 295.077 14.512C296.549 14.512 297.877 14.672 299.061 14.992C300.245 15.28 301.237 15.824 302.037 16.624C302.773 17.36 303.253 18.272 303.477 19.36C303.701 20.416 303.813 21.76 303.813 23.392V36.448C303.813 37.248 303.893 37.808 304.053 38.128C304.213 38.416 304.485 38.56 304.869 38.56C305.157 38.56 305.429 38.48 305.685 38.32C305.973 38.16 306.277 37.968 306.597 37.744L307.077 38.56C306.405 39.136 305.621 39.584 304.725 39.904C303.861 40.192 302.885 40.336 301.797 40.336C300.613 40.336 299.669 40.176 298.965 39.856C298.261 39.504 297.749 39.04 297.429 38.464C297.141 37.888 296.997 37.216 296.997 36.448C296.229 37.664 295.301 38.624 294.213 39.328C293.125 40 291.797 40.336 290.229 40.336ZM293.637 37.264C294.277 37.264 294.853 37.12 295.365 36.832C295.909 36.512 296.421 36 296.901 35.296V25.456C296.613 25.936 296.213 26.368 295.701 26.752C295.189 27.136 294.645 27.536 294.069 27.952C293.493 28.336 292.933 28.768 292.389 29.248C291.877 29.728 291.461 30.32 291.141 31.024C290.821 31.728 290.661 32.576 290.661 33.568C290.661 34.816 290.933 35.744 291.477 36.352C292.021 36.96 292.741 37.264 293.637 37.264Z" fill="#141414"/>
</svg>
